# xmcd CD database file
#
# Track frame offsets:
#	150
#	6109
#	17340
#	28242
#	38791
#	48894
#	59645
#	70880
#	83813
#	96918
#	108552
#	120013
#	131572
#	148543
#	160018
#	169240
#	182025
#	192268
#	202365
#	212846
#	222556
#	232473
#	241673
#
# Disc length: 3376 seconds
#
# Revision: 0
# Processed by: cddbd v1.5PL3 Copyright (c) Steve Scherf et al.
# Submitted via: CDex 1.51
#
DISCID=4e0d2e17
DTITLE=Various Artist - The Country Album
DYEAR=1900
DGENRE=Country
TTITLE0=Have I Told You Lately That I Love You
TTITLE1=All By Myself
TTITLE2=Accidently On Purpose
TTITLE3=King Of The Road
TTITLE4=Three Cigarettes (in an ashtray)
TTITLE5=I Love You More
TTITLE6=Rock A Bye Baby With A Dixie Melody
TTITLE7=Rhinestone Cowboy
TTITLE8=It Could'a Been Me
TTITLE9=Little Green Apples
TTITLE10=Listen To A Country Song
TTITLE11=Paper Doll
TTITLE12=Southern Nigths
TTITLE13=Let The Teardrops Fall
TTITLE14='Cause I Love You
TTITLE15=Crazy Dreams
TTITLE16=A-11
TTITLE17=Oh, Lonesome Me
TTITLE18=I'm So Lonesome I Could Cry
TTITLE19=Frozen Heart
TTITLE20=Six Days On The Road
TTITLE21=Rawhide
TTITLE22=I've Loved And Lost Again
EXTD=
EXTT0=
EXTT1=
EXTT2=
EXTT3=
EXTT4=
EXTT5=
EXTT6=
EXTT7=
EXTT8=
EXTT9=
EXTT10=
EXTT11=
EXTT12=
EXTT13=
EXTT14=
EXTT15=
EXTT16=
EXTT17=
EXTT18=
EXTT19=
EXTT20=
EXTT21=
EXTT22=
PLAYORDER=
